# xmcd
#
# Track frame offsets: 
#        150
#        11976
#        23191
#        32567
#        43315
#        53794
#        63253
#        70941
#        85569
#        99292
#        108206
#        118950
#        128386
#        137616
#        146443
#        157294
#        169010
#        189658
#        198651
#        209680
#
# Disc length: 3088 seconds
#
# Revision: 0
# Processed by: cddbd v1.5.2PL0 Copyright (c) Steve Scherf et al.
# Submitted via: ExactAudioCopy v0.99pb5
#
DISCID=1f0c0e14
DTITLE=Fats Domino  - Rockin' On Rampart - Disc 2
DYEAR=1900
DGENRE=
TTITLE0=Please Don't Leave Me
TTITLE1=Ain't That A Shame
TTITLE2=I'm In Love Again
TTITLE3=Blueberry Hill
TTITLE4=Blue Monday
TTITLE5=I'm Walkin'
TTITLE6=Whole Lotta Lovin'
TTITLE7=I'm In The Mood For Love
TTITLE8=When The Saints Go Marching In
TTITLE9=I'm Ready
TTITLE10=I Want To Walk You Home
TTITLE11=I'm Gonna Be A Wheel Someday
TTITLE12=Be My Guest
TTITLE13=My Girl Josephine
TTITLE14=What A Price
TTITLE15=Let The Four Winds Blow
TTITLE16=Jambalaya
TTITLE17=Red Sails In The Sunset
TTITLE18=There Goes My Heart Again
TTITLE19=Domino Twist
EXTD=
EXTT0=
EXTT1=
EXTT2=
EXTT3=
EXTT4=
EXTT5=
EXTT6=
EXTT7=
EXTT8=
EXTT9=
EXTT10=
EXTT11=
EXTT12=
EXTT13=
EXTT14=
EXTT15=
EXTT16=
EXTT17=
EXTT18=
EXTT19=
PLAYORDER=
